<?xml version="1.0" encoding="UTF-8" standalone="no"?>
<!DOCTYPE svg PUBLIC "-//W3C//DTD SVG 1.1//EN"
 "http://www.w3.org/Graphics/SVG/1.1/DTD/svg11.dtd">
<!-- Generated by graphviz version 2.50.0 (0)
 -->
<!-- Pages: 1 -->
<svg width="358pt" height="349pt"
 viewBox="0.00 0.00 358.00 348.91" xmlns="http://www.w3.org/2000/svg" xmlns:xlink="http://www.w3.org/1999/xlink">
<g id="graph0" class="graph" transform="scale(1 1) rotate(0) translate(4 344.91)">
<polygon fill="white" stroke="transparent" points="-4,4 -4,-344.91 354,-344.91 354,4 -4,4"/>
<g id="clust3" class="cluster">
<title>cluster7360</title>
<path fill="none" stroke="black" d="M120,-8C120,-8 208,-8 208,-8 214,-8 220,-14 220,-20 220,-20 220,-198.95 220,-198.95 220,-204.95 214,-210.95 208,-210.95 208,-210.95 120,-210.95 120,-210.95 114,-210.95 108,-204.95 108,-198.95 108,-198.95 108,-20 108,-20 108,-14 114,-8 120,-8"/>
<text text-anchor="middle" x="198" y="-15.8" font-family="Times New Roman,serif" font-size="14.00">7360</text>
</g>
<g id="clust2" class="cluster">
<title>cluster7</title>
<path fill="none" stroke="black" d="M228,-218.95C228,-218.95 330,-218.95 330,-218.95 336,-218.95 342,-224.95 342,-230.95 342,-230.95 342,-320.91 342,-320.91 342,-326.91 336,-332.91 330,-332.91 330,-332.91 228,-332.91 228,-332.91 222,-332.91 216,-326.91 216,-320.91 216,-320.91 216,-230.95 216,-230.95 216,-224.95 222,-218.95 228,-218.95"/>
<text text-anchor="middle" x="330.5" y="-226.75" font-family="Times New Roman,serif" font-size="14.00">7</text>
</g>
<g id="clust1" class="cluster">
<title>cluster7360 x 7</title>
<path fill="none" stroke="black" d="M20,-229.93C20,-229.93 100,-229.93 100,-229.93 106,-229.93 112,-235.93 112,-241.93 112,-241.93 112,-309.93 112,-309.93 112,-315.93 106,-321.93 100,-321.93 100,-321.93 20,-321.93 20,-321.93 14,-321.93 8,-315.93 8,-309.93 8,-309.93 8,-241.93 8,-241.93 8,-235.93 14,-229.93 20,-229.93"/>
<text text-anchor="middle" x="79.5" y="-237.73" font-family="Times New Roman,serif" font-size="14.00">7360 x 7</text>
</g>
<!-- pred -->
<g id="node1" class="node">
<title>pred</title>
<path fill="lightgrey" stroke="black" d="M92,-313.93C92,-313.93 28,-313.93 28,-313.93 22,-313.93 16,-307.93 16,-301.93 16,-301.93 16,-272.93 16,-272.93 16,-266.93 22,-260.93 28,-260.93 28,-260.93 92,-260.93 92,-260.93 98,-260.93 104,-266.93 104,-272.93 104,-272.93 104,-301.93 104,-301.93 104,-307.93 98,-313.93 92,-313.93"/>
<text text-anchor="middle" x="60" y="-298.73" font-family="Times New Roman,serif" font-size="14.00">pred</text>
<text text-anchor="middle" x="60" y="-283.73" font-family="Times New Roman,serif" font-size="14.00">~</text>
<text text-anchor="middle" x="60" y="-268.73" font-family="Times New Roman,serif" font-size="14.00">MutableData</text>
</g>
<!-- p -->
<g id="node5" class="node">
<title>p</title>
<polygon fill="none" stroke="black" points="209.5,-202.95 118.5,-202.95 118.5,-149.95 209.5,-149.95 209.5,-202.95"/>
<text text-anchor="middle" x="164" y="-187.75" font-family="Times New Roman,serif" font-size="14.00">p</text>
<text text-anchor="middle" x="164" y="-172.75" font-family="Times New Roman,serif" font-size="14.00">~</text>
<text text-anchor="middle" x="164" y="-157.75" font-family="Times New Roman,serif" font-size="14.00">Deterministic</text>
</g>
<!-- pred&#45;&gt;p -->
<g id="edge2" class="edge">
<title>pred&#45;&gt;p</title>
<path fill="none" stroke="black" d="M78.13,-260.65C87.83,-247.59 100.37,-231.81 113,-218.95 116.1,-215.8 119.43,-212.65 122.85,-209.58"/>
<polygon fill="black" stroke="black" points="125.17,-212.2 130.42,-202.99 120.57,-206.91 125.17,-212.2"/>
</g>
<!-- α -->
<g id="node2" class="node">
<title>α</title>
<ellipse fill="none" stroke="black" cx="164" cy="-287.43" rx="41.94" ry="37.45"/>
<text text-anchor="middle" x="164" y="-298.73" font-family="Times New Roman,serif" font-size="14.00">α</text>
<text text-anchor="middle" x="164" y="-283.73" font-family="Times New Roman,serif" font-size="14.00">~</text>
<text text-anchor="middle" x="164" y="-268.73" font-family="Times New Roman,serif" font-size="14.00">Normal</text>
</g>
<!-- α&#45;&gt;p -->
<g id="edge1" class="edge">
<title>α&#45;&gt;p</title>
<path fill="none" stroke="black" d="M164,-249.84C164,-238.1 164,-225.11 164,-213.42"/>
<polygon fill="black" stroke="black" points="167.5,-213.11 164,-203.11 160.5,-213.11 167.5,-213.11"/>
</g>
<!-- β -->
<g id="node3" class="node">
<title>β</title>
<ellipse fill="none" stroke="black" cx="279" cy="-287.43" rx="55.31" ry="37.45"/>
<text text-anchor="middle" x="279" y="-298.73" font-family="Times New Roman,serif" font-size="14.00">β</text>
<text text-anchor="middle" x="279" y="-283.73" font-family="Times New Roman,serif" font-size="14.00">~</text>
<text text-anchor="middle" x="279" y="-268.73" font-family="Times New Roman,serif" font-size="14.00">MvNormal</text>
</g>
<!-- β&#45;&gt;p -->
<g id="edge3" class="edge">
<title>β&#45;&gt;p</title>
<path fill="none" stroke="black" d="M250.81,-255.05C239.94,-243.39 227.2,-230.26 215,-218.95 211.66,-215.86 208.12,-212.72 204.53,-209.63"/>
<polygon fill="black" stroke="black" points="206.53,-206.74 196.63,-202.96 202.02,-212.09 206.53,-206.74"/>
</g>
<!-- Yl -->
<g id="node4" class="node">
<title>Yl</title>
<ellipse fill="lightgrey" stroke="black" cx="164" cy="-76.48" rx="48.17" ry="37.45"/>
<text text-anchor="middle" x="164" y="-87.78" font-family="Times New Roman,serif" font-size="14.00">Yl</text>
<text text-anchor="middle" x="164" y="-72.78" font-family="Times New Roman,serif" font-size="14.00">~</text>
<text text-anchor="middle" x="164" y="-57.78" font-family="Times New Roman,serif" font-size="14.00">Bernoulli</text>
</g>
<!-- p&#45;&gt;Yl -->
<g id="edge4" class="edge">
<title>p&#45;&gt;Yl</title>
<path fill="none" stroke="black" d="M164,-149.71C164,-141.89 164,-133.03 164,-124.27"/>
<polygon fill="black" stroke="black" points="167.5,-124.1 164,-114.1 160.5,-124.1 167.5,-124.1"/>
</g>
</g>
</svg>
